<svg width="1100" height="720" viewBox="0 0 1100 720" xmlns="http://www.w3.org/2000/svg" role="img" aria-labelledby="title desc">
  <title id="title">Twice 澳门票源 C 原始上传图模拟</title>
  <desc id="desc">模拟韩文票源原图，保留黄色标记和黑笔批注。</desc>
  <rect width="1100" height="720" fill="#f8f6f0"/>
  <rect x="58" y="54" width="984" height="586" fill="#fff" stroke="#171717" stroke-width="3"/>
  <rect x="58" y="54" width="984" height="72" fill="#e6f4d7" stroke="#171717" stroke-width="3"/>
  <text x="86" y="100" font-family="Arial, sans-serif" font-size="31" font-weight="700" fill="#111">트와이스 마카오 티켓 리스트</text>
  <g font-family="Arial, sans-serif" font-size="22">
    <rect x="58" y="126" width="984" height="58" fill="#fff0b3"/>
    <g font-weight="700"><text x="92" y="162">공연일</text><text x="260" y="162">구역</text><text x="430" y="162">좌석</text><text x="628" y="162">금액</text><text x="790" y="162">수량</text><text x="900" y="162">메모</text></g>
    <path d="M58 184H1042M58 248H1042M58 312H1042M58 376H1042" stroke="#171717" stroke-width="2"/>
    <path d="M222 126V376M398 126V376M610 126V376M764 126V376M872 126V376" stroke="#171717" stroke-width="2"/>
    <text x="92" y="226">9월 12일</text><text x="260" y="226">VIP A3</text><text x="430" y="226">2열 4번</text><text x="628" y="226">₩520,000</text><text x="790" y="226">1</text><text x="900" y="226">빠른 입장</text>
    <text x="92" y="290">9월 13일</text><text x="260" y="290">스탠드 206</text><text x="430" y="290">10열 18-19</text><text x="628" y="290">₩310,000</text><text x="790" y="290">2</text><text x="900" y="290">연석</text>
    <text x="92" y="354">9월 13일</text><text x="260" y="354">A区 103</text><text x="430" y="354">15排 01</text><text x="628" y="354">HKD 1680</text><text x="790" y="354">1</text><text x="900" y="354">靠近过道</text>
  </g>
  <rect x="244" y="199" width="320" height="44" fill="#fff159" opacity="0.55"/>
  <path d="M198 486c112-72 256-84 436-46" fill="none" stroke="#111" stroke-width="8" stroke-linecap="round"/>
  <text x="206" y="546" font-family="Arial, sans-serif" font-size="34" fill="#111">메모: A3 빠른 확인</text>
  <path d="M732 198l192 0" stroke="#d71920" stroke-width="8" stroke-linecap="round"/>
</svg>
