<svg width="1200" height="520" viewBox="0 0 1200 520" xmlns="http://www.w3.org/2000/svg" role="img" aria-labelledby="title desc">
  <title id="title">BigBang 高阳官方座位图模拟</title>
  <desc id="desc">静态座位图示意，包含舞台、Floor、看台和VIP Standing区域。</desc>
  <rect width="1200" height="520" fill="#fffdf8"/>
  <rect x="80" y="44" width="1040" height="76" rx="6" fill="#1d2433"/>
  <text x="600" y="90" text-anchor="middle" fill="#ffffff" font-family="Arial, sans-serif" font-size="30" font-weight="700">BIGBANG STAGE</text>
  <rect x="210" y="152" width="210" height="146" rx="8" fill="#cce6df" stroke="#146c75" stroke-width="3"/>
  <rect x="494" y="152" width="210" height="146" rx="8" fill="#cce6df" stroke="#146c75" stroke-width="3"/>
  <rect x="778" y="152" width="210" height="146" rx="8" fill="#cce6df" stroke="#146c75" stroke-width="3"/>
  <text x="315" y="232" text-anchor="middle" fill="#0e4d55" font-family="Arial, sans-serif" font-size="27" font-weight="700">Floor F1</text>
  <text x="599" y="232" text-anchor="middle" fill="#0e4d55" font-family="Arial, sans-serif" font-size="27" font-weight="700">VIP Standing</text>
  <text x="883" y="232" text-anchor="middle" fill="#0e4d55" font-family="Arial, sans-serif" font-size="27" font-weight="700">Floor F3</text>
  <rect x="108" y="344" width="214" height="100" rx="8" fill="#f4d7bf" stroke="#b35d2e" stroke-width="3"/>
  <rect x="386" y="344" width="214" height="100" rx="8" fill="#e8e4f4" stroke="#6650a4" stroke-width="3"/>
  <rect x="664" y="344" width="214" height="100" rx="8" fill="#e8e4f4" stroke="#6650a4" stroke-width="3"/>
  <rect x="942" y="344" width="150" height="100" rx="8" fill="#f5eccb" stroke="#a87900" stroke-width="3"/>
  <text x="215" y="402" text-anchor="middle" fill="#7f3f1f" font-family="Arial, sans-serif" font-size="24" font-weight="700">R区 112</text>
  <text x="493" y="402" text-anchor="middle" fill="#45326f" font-family="Arial, sans-serif" font-size="24" font-weight="700">2층 214</text>
  <text x="771" y="402" text-anchor="middle" fill="#45326f" font-family="Arial, sans-serif" font-size="24" font-weight="700">3층 318</text>
  <text x="1017" y="402" text-anchor="middle" fill="#775400" font-family="Arial, sans-serif" font-size="24" font-weight="700">316</text>
  <text x="600" y="486" text-anchor="middle" fill="#687083" font-family="Arial, sans-serif" font-size="18">韩国高阳 KINTEX · 静态参考图</text>
</svg>
